<?xml version="1.0" standalone="no"?>
<!DOCTYPE svg PUBLIC "-//W3C//DTD SVG 20010904//EN"
 "http://www.w3.org/TR/2001/REC-SVG-20010904/DTD/svg10.dtd">
<svg version="1.0" xmlns="http://www.w3.org/2000/svg"
 width="524.000000pt" height="524.000000pt" viewBox="0 0 524.000000 524.000000"
 preserveAspectRatio="xMidYMid meet">
<metadata>
Created by potrace 1.11, written by Peter Selinger 2001-2013
</metadata>
<g transform="translate(0.000000,524.000000) scale(0.100000,-0.100000)"
fill="#000000" stroke="none">
<path d="M2580 5153 c-25 -2 -98 -12 -162 -23 -311 -53 -600 -231 -794 -490
-90 -120 -213 -378 -202 -424 2 -8 152 -166 333 -352 182 -186 343 -352 359
-369 l29 -30 41 50 c89 109 180 191 251 226 64 31 78 34 160 34 118 0 195 -28
272 -98 95 -88 128 -184 99 -295 -8 -34 -26 -79 -39 -99 -33 -51 -111 -123
-172 -157 -28 -16 -62 -37 -78 -48 -39 -27 -184 -80 -307 -112 -272 -72 -361
-110 -439 -186 -99 -97 -121 -147 -137 -307 -6 -70 -6 -73 17 -82 44 -19 654
-140 657 -131 23 66 123 109 372 160 328 67 403 90 555 172 132 72 135 75 258
195 195 193 341 475 418 813 26 112 30 336 10 460 -26 156 -84 312 -164 439
-49 80 -139 191 -199 247 -56 53 -202 164 -215 164 -6 0 -22 9 -35 20 -34 26
-170 93 -254 125 -180 68 -455 110 -634 98z"/>
<path d="M1807 2074 c-4 -4 -7 -103 -7 -219 l0 -212 128 -27 c348 -73 407 -84
411 -81 5 6 81 384 81 405 0 14 -50 27 -282 74 -156 32 -292 60 -303 62 -11 3
-24 2 -28 -2z"/>
</g>
</svg>
